<?xml version="1.0" encoding="utf-8"?>
<!-- Generator: Adobe Illustrator 28.0.0, SVG Export Plug-In . SVG Version: 6.00 Build 0)  -->
<svg version="1.1" id="Layer_1" xmlns="http://www.w3.org/2000/svg" xmlns:xlink="http://www.w3.org/1999/xlink" x="0px" y="0px"
	 viewBox="0 0 8 6.86" style="enable-background:new 0 0 8 6.86;" xml:space="preserve">
<style type="text/css">
	.st0{fill:none;stroke:#000000;stroke-miterlimit:10;}
	.st1{fill:none;stroke:#000000;stroke-width:1;stroke-miterlimit:10;}
	.st2{fill:none;stroke:#000000;stroke-width:0.382;stroke-miterlimit:10;}
	.st3{fill:#FFFFFF;}
</style>
<g>
	<path d="M5.98,3.06c-0.36,0-0.69,0.11-0.97,0.29v0.37c0,0.55-0.15,1.09-0.43,1.56C4.32,5.7,3.96,6.06,3.54,6.32
		C3.53,6.33,3.51,6.33,3.5,6.34v0.24H4.9V6.2c0.3,0.24,0.68,0.38,1.09,0.38c0.85,0,1.55-0.6,1.72-1.39
		c0.03-0.12,0.04-0.24,0.04-0.37C7.75,3.84,6.96,3.06,5.98,3.06z"/>
	<path d="M4.83,0.28v3.44c0,0.54-0.15,1.04-0.41,1.47c-0.24,0.4-0.58,0.74-0.98,0.98C3.02,6.42,2.52,6.57,1.98,6.57H0.25V5.19h1.43
		c0.97,0,1.76-0.79,1.76-1.76V0.28H4.83z"/>
</g>
</svg>
